PathFileType	4	(X/Y/Z)	 control3min.trc
DataRate	CameraRate	NumFrames	NumMarkers	Units	OrigDataRate	OrigDataStartFrame	OrigNumFrames
200	200	11	35	m	200	1	1000
Frame#	Time	C7			LSH			RSH			MAN			RASI			LASI			HIPR			HIPL			RPSI			LPSI			COX			RTHI1			RTHI2			RTHI3			RTHI4			RSHA1			RSHA2			RSHA3			RSHA4			RHEEL			RMET5			RMET1			RTOE			LTHI1			LTHI2			LTHI3			LTHI4			LSHA1			LSHA2			LSHA3			LSHA4			LHEEL			LMET5			LMET1			LTOE			
		X1	Y1	Z1	X2	Y2	Z2	X3	Y3	Z3	X4	Y4	Z4	X5	Y5	Z5	X6	Y6	Z6	X7	Y7	Z7	X8	Y8	Z8	X9	Y9	Z9	X10	Y10	Z10	X11	Y11	Z11	X12	Y12	Z12	X13	Y13	Z13	X14	Y14	Z14	X15	Y15	Z15	X16	Y16	Z16	X17	Y17	Z17	X18	Y18	Z18	X19	Y19	Z19	X20	Y20	Z20	X21	Y21	Z21	X22	Y22	Z22	X23	Y23	Z23	X24	Y24	Z24	X25	Y25	Z25	X26	Y26	Z26	X27	Y27	Z27	X28	Y28	Z28	X29	Y29	Z29	X30	Y30	Z30	X31	Y31	Z31	X32	Y32	Z32	X33	Y33	Z33	X34	Y34	Z34	X35	Y35	Z35	
1	0.0050	-0.330859	1.293778	-0.549490	-0.274974	1.252496	-0.729059	-0.246903	1.245196	-0.374967	-0.215499	1.238607	-0.558068	-0.176720	0.844520	-0.467247	-0.177403	0.856275	-0.656889	-0.237931	0.897940	-0.422469	-0.229393	0.903073	-0.693233	-0.329670	0.884072	-0.496492	-0.329316	0.885060	-0.612786	-0.335074	0.895233	-0.555494	-0.275716	0.632321	-0.410421	-0.251603	0.577934	-0.403693	-0.194839	0.600619	-0.382806	-0.211447	0.659795	-0.385992	-0.304776	0.259297	-0.372143	-0.328662	0.225654	-0.373318	-0.283241	0.192555	-0.365985	-0.254492	0.224453	-0.368073	-0.432383	0.064095	-0.402529	-0.271496	0.028020	-0.350550	-0.248130	0.034102	-0.436132	-0.224511	0.027132	-0.427872	-0.242142	0.647554	-0.733726	-0.225230	0.588346	-0.735415	-0.161733	0.600132	-0.725769	-0.171304	0.659070	-0.723561	-0.318057	0.237712	-0.755824	-0.336106	0.197152	-0.754206	-0.288363	0.174246	-0.742852	-0.264741	0.207353	-0.743451	-0.437890	0.066185	-0.710823	-0.278173	0.027644	-0.776951	-0.252941	0.034801	-0.699576	-0.224846	0.025701	-0.709985	
2	0.0100	-0.331169	1.295782	-0.549352	-0.275268	1.254745	-0.728954	-0.247148	1.247331	-0.374847	-0.216101	1.240616	-0.557961	-0.176400	0.846213	-0.467250	-0.176925	0.858214	-0.656732	-0.237534	0.899654	-0.422583	-0.228995	0.904690	-0.693570	-0.329286	0.886038	-0.496538	-0.328889	0.887265	-0.612805	-0.334384	0.897265	-0.555560	-0.276025	0.634532	-0.410128	-0.252086	0.580045	-0.403305	-0.195187	0.602668	-0.382705	-0.211610	0.661863	-0.385979	-0.305572	0.260203	-0.371941	-0.329218	0.226753	-0.373146	-0.283679	0.193934	-0.365821	-0.255162	0.225871	-0.367864	-0.432166	0.064744	-0.402463	-0.271450	0.027999	-0.350555	-0.248056	0.034095	-0.436074	-0.224396	0.027178	-0.427969	-0.241752	0.649825	-0.734074	-0.225006	0.590549	-0.735566	-0.161574	0.602101	-0.725285	-0.170973	0.661106	-0.723119	-0.318365	0.238926	-0.756196	-0.336246	0.198380	-0.754573	-0.288547	0.175637	-0.742949	-0.265011	0.208737	-0.743511	-0.437672	0.067200	-0.711521	-0.278030	0.027595	-0.777008	-0.252927	0.034787	-0.699609	-0.224833	0.025760	-0.709963	
3	0.0150	-0.331523	1.298226	-0.549243	-0.275551	1.257503	-0.728843	-0.247426	1.249999	-0.374786	-0.216591	1.243219	-0.557867	-0.175999	0.848403	-0.467268	-0.176370	0.860742	-0.656549	-0.237046	0.901748	-0.422596	-0.228539	0.907182	-0.693747	-0.328729	0.888458	-0.496590	-0.328364	0.890049	-0.612749	-0.333408	0.899741	-0.555530	-0.276384	0.637249	-0.409749	-0.252649	0.582664	-0.402785	-0.195617	0.605168	-0.382493	-0.211790	0.664427	-0.385898	-0.306584	0.261458	-0.371737	-0.329921	0.228154	-0.372949	-0.284227	0.195616	-0.365576	-0.256092	0.227646	-0.367495	-0.431809	0.065557	-0.402285	-0.271383	0.027971	-0.350553	-0.247974	0.034062	-0.435956	-0.224298	0.027204	-0.428010	-0.241418	0.652582	-0.734441	-0.224857	0.593240	-0.735817	-0.161498	0.604558	-0.724937	-0.170711	0.663598	-0.722771	-0.318789	0.240444	-0.756710	-0.336470	0.199907	-0.755063	-0.288737	0.177407	-0.743151	-0.265349	0.210503	-0.743738	-0.437382	0.068533	-0.712346	-0.277861	0.027543	-0.777073	-0.252920	0.034762	-0.699646	-0.224840	0.025772	-0.709925	
4	0.0200	-0.331876	1.300797	-0.549135	-0.275833	1.260391	-0.728729	-0.247707	1.252806	-0.374731	-0.217054	1.245968	-0.557774	-0.175579	0.850741	-0.467286	-0.175809	0.863417	-0.656367	-0.236538	0.904004	-0.422605	-0.228046	0.909873	-0.693880	-0.328157	0.891035	-0.496631	-0.327818	0.892960	-0.612683	-0.332463	0.902349	-0.555490	-0.276755	0.640101	-0.409341	-0.253239	0.585418	-0.402242	-0.196060	0.607784	-0.382266	-0.211972	0.667108	-0.385806	-0.307632	0.262855	-0.371491	-0.330677	0.229605	-0.372748	-0.284803	0.197377	-0.365305	-0.257044	0.229513	-0.367100	-0.431432	0.066446	-0.402084	-0.271312	0.027945	-0.350549	-0.247891	0.034036	-0.435830	-0.224203	0.027232	-0.428041	-0.241119	0.655469	-0.734821	-0.224752	0.596058	-0.736090	-0.161461	0.607131	-0.724631	-0.170482	0.666206	-0.722458	-0.319249	0.242052	-0.757250	-0.336720	0.201506	-0.755574	-0.288933	0.179268	-0.743396	-0.265711	0.212377	-0.744008	-0.437065	0.069940	-0.713173	-0.277690	0.027496	-0.777140	-0.252910	0.034739	-0.699691	-0.224849	0.025784	-0.709887	
5	0.0250	-0.332247	1.303731	-0.549044	-0.276108	1.263678	-0.728609	-0.248000	1.256037	-0.374708	-0.217441	1.249166	-0.557689	-0.175099	0.853505	-0.467310	-0.175207	0.866550	-0.656178	-0.235964	0.906661	-0.422570	-0.227488	0.913192	-0.693888	-0.327494	0.894018	-0.496660	-0.327202	0.896294	-0.612581	-0.331452	0.905343	-0.555404	-0.277164	0.643355	-0.408854	-0.253898	0.588575	-0.401615	-0.196561	0.610754	-0.381974	-0.212166	0.670164	-0.385669	-0.308828	0.264566	-0.371196	-0.331553	0.231273	-0.372518	-0.285473	0.199370	-0.364952	-0.258130	0.231654	-0.366611	-0.430959	0.067512	-0.401803	-0.271226	0.027916	-0.350540	-0.247807	0.034003	-0.435668	-0.224120	0.027254	-0.428034	-0.240900	0.658742	-0.735222	-0.224747	0.599264	-0.736433	-0.161518	0.610079	-0.724443	-0.170330	0.669174	-0.722239	-0.319812	0.243911	-0.757883	-0.337045	0.203332	-0.756160	-0.289141	0.181414	-0.743744	-0.266137	0.214571	-0.744410	-0.436675	0.071587	-0.714050	-0.277504	0.027453	-0.777211	-0.252894	0.034720	-0.699754	-0.224866	0.025774	-0.709844	
6	0.0300	-0.332620	1.307005	-0.548962	-0.276388	1.267304	-0.728480	-0.248295	1.259634	-0.374704	-0.217718	1.252768	-0.557617	-0.174564	0.856649	-0.467328	-0.174587	0.870056	-0.655981	-0.235352	0.909784	-0.422529	-0.226848	0.916994	-0.693793	-0.326800	0.897410	-0.496669	-0.326531	0.899967	-0.612476	-0.330567	0.908703	-0.555301	-0.277597	0.646982	-0.408323	-0.254618	0.592095	-0.400958	-0.197103	0.614044	-0.381645	-0.212361	0.673539	-0.385491	-0.310141	0.266558	-0.370835	-0.332545	0.233126	-0.372216	-0.286220	0.201550	-0.364516	-0.259281	0.234039	-0.366050	-0.430411	0.068765	-0.401443	-0.271132	0.027888	-0.350510	-0.247721	0.033996	-0.435477	-0.224050	0.027274	-0.427991	-0.240784	0.662349	-0.735647	-0.224865	0.602807	-0.736832	-0.161683	0.613330	-0.724370	-0.170268	0.672450	-0.722120	-0.320460	0.246022	-0.758579	-0.337435	0.205353	-0.756801	-0.289376	0.183795	-0.744208	-0.266624	0.217051	-0.744920	-0.436208	0.073444	-0.714922	-0.277310	0.027422	-0.777283	-0.252859	0.034719	-0.699847	-0.224883	0.025767	-0.709802	
7	0.0350	-0.333004	1.310632	-0.548883	-0.276670	1.271296	-0.728341	-0.248571	1.263635	-0.374701	-0.217892	1.256788	-0.557564	-0.173980	0.860232	-0.467338	-0.173951	0.873970	-0.655794	-0.234672	0.913392	-0.422501	-0.226126	0.921270	-0.693599	-0.326056	0.901234	-0.496678	-0.325807	0.904000	-0.612368	-0.329712	0.912450	-0.555196	-0.278073	0.651019	-0.407734	-0.255418	0.596022	-0.400246	-0.197702	0.617687	-0.381276	-0.212577	0.677269	-0.385285	-0.311568	0.268852	-0.370396	-0.333650	0.235179	-0.371833	-0.287042	0.203976	-0.364005	-0.260471	0.236701	-0.365446	-0.429804	0.070287	-0.401032	-0.271023	0.027862	-0.350474	-0.247636	0.034014	-0.435266	-0.223994	0.027295	-0.427916	-0.240790	0.666322	-0.736088	-0.225132	0.606713	-0.737285	-0.161981	0.616921	-0.724432	-0.170308	0.676068	-0.722115	-0.321208	0.248397	-0.759332	-0.337882	0.207619	-0.757497	-0.289640	0.186442	-0.744797	-0.267172	0.219860	-0.745553	-0.435636	0.075548	-0.715788	-0.277109	0.027405	-0.777353	-0.252804	0.034741	-0.699972	-0.224898	0.025758	-0.709768	
8	0.0400	-0.333396	1.314572	-0.548804	-0.276966	1.275610	-0.728195	-0.248818	1.268003	-0.374683	-0.217971	1.261183	-0.557528	-0.173363	0.864228	-0.467341	-0.173312	0.878235	-0.655619	-0.233940	0.917490	-0.422501	-0.225330	0.925901	-0.693345	-0.325281	0.905456	-0.496696	-0.325042	0.908348	-0.612276	-0.328913	0.916552	-0.555127	-0.278592	0.655443	-0.407105	-0.256300	0.600326	-0.399504	-0.198362	0.621654	-0.380876	-0.212815	0.681326	-0.385057	-0.313074	0.271419	-0.369849	-0.334830	0.237440	-0.371342	-0.287927	0.206655	-0.363411	-0.261691	0.239638	-0.364800	-0.429148	0.072071	-0.400577	-0.270901	0.027839	-0.350424	-0.247551	0.034069	-0.435030	-0.223949	0.027323	-0.427811	-0.240930	0.670630	-0.736536	-0.225558	0.610949	-0.737776	-0.162417	0.620818	-0.724628	-0.170463	0.679990	-0.722231	-0.322039	0.251044	-0.760118	-0.338373	0.210119	-0.758223	-0.289943	0.189338	-0.745504	-0.267773	0.222977	-0.746300	-0.434955	0.077889	-0.716618	-0.276902	0.027404	-0.777413	-0.252721	0.034803	-0.700141	-0.224903	0.025760	-0.709752	
9	0.0450	-0.333780	1.318799	-0.548729	-0.277271	1.280212	-0.728042	-0.249038	1.272682	-0.374668	-0.217983	1.265897	-0.557514	-0.172721	0.868594	-0.467344	-0.172679	0.882790	-0.655461	-0.233167	0.922049	-0.422550	-0.224501	0.930764	-0.693074	-0.324488	0.910022	-0.496733	-0.324254	0.912966	-0.612216	-0.328182	0.920988	-0.555093	-0.279147	0.660226	-0.406464	-0.257254	0.604974	-0.398762	-0.199083	0.625925	-0.380463	-0.213082	0.685682	-0.384809	-0.314654	0.274179	-0.369266	-0.336054	0.239919	-0.370748	-0.288855	0.209545	-0.362743	-0.262913	0.242821	-0.364128	-0.428441	0.074129	-0.400090	-0.270766	0.027818	-0.350363	-0.247464	0.034166	-0.434768	-0.223915	0.027357	-0.427675	-0.241213	0.675234	-0.736970	-0.226146	0.615481	-0.738297	-0.162994	0.624991	-0.724962	-0.170728	0.684195	-0.722464	-0.322939	0.253940	-0.760920	-0.338895	0.212859	-0.758972	-0.290267	0.192479	-0.746320	-0.268406	0.226388	-0.747147	-0.434154	0.080463	-0.717405	-0.276690	0.027421	-0.777461	-0.252602	0.034908	-0.700352	-0.224895	0.025775	-0.709758	
10	0.0500	-0.334133	1.323288	-0.548664	-0.277590	1.285064	-0.727882	-0.249235	1.277631	-0.374657	-0.217984	1.270866	-0.557514	-0.172066	0.873280	-0.467344	-0.172057	0.887579	-0.655324	-0.232354	0.926991	-0.422651	-0.223657	0.935788	-0.692826	-0.323671	0.914885	-0.496803	-0.323451	0.917818	-0.612178	-0.327443	0.925694	-0.555096	-0.279745	0.665348	-0.405830	-0.258287	0.609947	-0.398021	-0.199870	0.630477	-0.380042	-0.213384	0.690318	-0.384556	-0.316263	0.277135	-0.368630	-0.337299	0.242608	-0.370058	-0.289789	0.212667	-0.362027	-0.264141	0.246265	-0.363421	-0.427678	0.076451	-0.399581	-0.270616	0.027800	-0.350296	-0.247368	0.034313	-0.434477	-0.223890	0.027398	-0.427508	-0.241630	0.680104	-0.737383	-0.226893	0.620279	-0.738840	-0.163707	0.629407	-0.725428	-0.171102	0.688647	-0.722809	-0.323878	0.257088	-0.761724	-0.339415	0.215843	-0.759731	-0.290605	0.195871	-0.747235	-0.269054	0.230067	-0.748084	-0.433226	0.083269	-0.718143	-0.276472	0.027457	-0.777491	-0.252450	0.035060	-0.700599	-0.224869	0.025805	-0.709790	
11	0.0550	-0.334456	1.328000	-0.548610	-0.277906	1.290138	-0.727723	-0.249412	1.282804	-0.374653	-0.218103	1.275984	-0.557513	-0.171412	0.878235	-0.467354	-0.171453	0.892562	-0.655224	-0.231511	0.932240	-0.422807	-0.222850	0.940893	-0.692637	-0.322851	0.919984	-0.496885	-0.322648	0.922859	-0.612156	-0.326706	0.930638	-0.555132	-0.280382	0.670749	-0.405205	-0.259395	0.615199	-0.397291	-0.200721	0.635264	-0.379623	-0.213724	0.695198	-0.384308	-0.317876	0.280271	-0.367952	-0.338543	0.245473	-0.369373	-0.290698	0.215991	-0.361291	-0.265377	0.249949	-0.362706	-0.426858	0.079016	-0.399066	-0.270447	0.027786	-0.350235	-0.247265	0.034493	-0.434150	-0.223863	0.027450	-0.427317	-0.242175	0.685216	-0.737766	-0.227787	0.625314	-0.739395	-0.164545	0.634044	-0.726019	-0.171576	0.693319	-0.723261	-0.324845	0.260458	-0.762524	-0.339927	0.219053	-0.760485	-0.290909	0.199511	-0.748225	-0.269698	0.234002	-0.749105	-0.432164	0.086278	-0.718825	-0.276245	0.027514	-0.777500	-0.252260	0.035255	-0.700886	-0.224824	0.025848	-0.709852	
